<svg height="512pt" viewBox="-45 0 512 512.00006" width="512pt" xmlns="http://www.w3.org/2000/svg"><path d="m387.28125 309.71875c3.382812-5.5625 5.332031-12.097656 5.332031-19.085938 0-13.65625-7.453125-25.570312-18.503906-31.914062 6.773437-6.671875 10.976563-15.945312 10.976563-26.203125 0-20.3125-16.46875-36.785156-36.785157-36.785156-4.679687 0-269.863281 0-274.539062 0-20.316407 0-36.785157 16.46875-36.785157 36.785156 0 10.257813 4.203126 19.53125 10.976563 26.203125-11.054687 6.34375-18.503906 18.257812-18.503906 31.914062 0 6.988282 1.949219 13.523438 5.332031 19.085938-15.875 5.46875-27.28125 20.527344-27.28125 38.257812 0 22.351563 18.117188 40.46875 40.464844 40.46875 1.589844 0 3.152344-.097656 4.691406-.277343-2.988281 5.671875-4.691406 12.128906-4.691406 18.988281 0 9.976562 3.722656 19.734375 10.375 27.171875 4.175781 4.671875 9.492187 8.5625 15.234375 11.074219 6.019531 2.628906 11.945312 2.546875 18.386719 2.546875h23.183593 33.605469 39.90625 42.097656 40.167969 34.125 23.972656c5.625 0 10.992188-.164063 16.386719-1.835938 4.480469-1.390625 8.707031-3.5625 12.449219-6.386719 7.492187-5.652343 12.90625-13.855468 15.105469-22.984374.757812-3.136719 1.136718-6.359376 1.136718-9.585938 0-6.859375-1.703125-13.316406-4.691406-18.988281 1.539062.179687 3.101562.277343 4.691406.277343 22.347656 0 40.46875-18.117187 40.46875-40.46875-.003906-17.730468-11.414062-32.789062-27.285156-38.257812zm0 0" fill="#a87a52"/><path d="m387.28125 309.722656c3.375-5.570312 5.335938-12.101562 5.335938-19.089844 0-13.652343-7.457032-25.566406-18.507813-31.914062 6.777344-6.667969 10.976563-15.945312 10.976563-26.199219 0-20.320312-16.472657-36.78125-36.78125-36.78125h-49.425782c20.304688 0 36.78125 16.460938 36.78125 36.78125 0 9.070313-3.289062 17.378907-8.738281 23.792969-1.078125 1.265625-.828125 3.214844.535156 4.167969 9.507813 6.652343 15.734375 17.675781 15.734375 30.15625 0 5.835937-1.359375 11.355469-3.78125 16.261719-.75 1.515624-.105468 3.316406 1.445313 3.996093 14.289062 6.242188 24.28125 20.496094 24.28125 37.089844 0 22.34375-18.113281 40.46875-40.46875 40.46875-.015625 0-.03125 0-.046875 0-2.058594-.003906-3.457032 2.015625-2.710938 3.9375 1.777344 4.574219 2.757813 9.554687 2.757813 14.769531 0 20.675782-15.390625 37.742188-35.339844 40.417969v.367187h31.425781 11.769532c4.378906.003907 7.988281-.394531 12.253906-1.644531 4.511718-1.320312 8.785156-3.433593 12.582031-6.210937 7.582031-5.542969 13.125-13.671875 15.460937-22.773438.847657-3.3125 1.273438-6.734375 1.273438-10.15625 0-6.863281-1.699219-13.324218-4.695312-18.992187 1.542968.171875 3.105468.285156 4.695312.285156 22.34375 0 40.46875-18.128906 40.46875-40.46875 0-17.734375-11.410156-32.789063-27.28125-38.261719zm0 0" fill="#906846"/><path d="m252.757812 373.558594h-83.824218s-70.84375 35.015625-92.480469 130.945312h268.785156c-21.636719-95.929687-92.480469-130.945312-92.480469-130.945312zm0 0" fill="#efe2dd"/><path d="m345.238281 504.503906h-22.394531c-21.640625-95.9375-92.488281-130.945312-92.488281-130.945312h22.40625s70.84375 35.007812 92.476562 130.945312zm0 0" fill="#e1d3ce"/><path d="m366.734375 145.074219h-136.761719v-57.433594h-37.886718v57.433594h-137.417969l.328125 116.09375c0 62.207031 50.429687 112.636719 112.636718 112.636719h86.792969c62.207031 0 112.636719-50.429688 112.636719-112.636719zm0 0" fill="#fed2a4"/><path d="m367.0625 156.449219v104.71875c0 62.203125-50.429688 112.632812-112.632812 112.632812h-27.257813c62.203125 0 112.636719-50.429687 112.636719-112.632812v-104.71875zm0 0" fill="#ffbd86"/><path d="m136.691406 261.417969c0 9.265625-7.511718 16.78125-16.78125 16.78125-9.269531 0-16.78125-7.515625-16.78125-16.78125 0-9.269531 7.511719-16.785157 16.78125-16.785157 9.269532 0 16.78125 7.515626 16.78125 16.785157zm0 0" fill="#ff7a7a"/><path d="m318.933594 261.417969c0 9.265625-7.515625 16.78125-16.785156 16.78125-9.265626 0-16.78125-7.515625-16.78125-16.78125 0-9.269531 7.515624-16.785157 16.78125-16.785157 9.269531 0 16.785156 7.515626 16.785156 16.785157zm0 0" fill="#ff7a7a"/><path d="m54.996094 190.554688h-2.203125c-20.546875 0-37.203125 16.65625-37.203125 37.199218 0 20.546875 16.65625 37.203125 37.203125 37.203125h2.203125zm0 0" fill="#fed2a4"/><path d="m367.164062 190.554688h2.203126c20.546874 0 37.203124 16.65625 37.203124 37.199218 0 20.546875-16.65625 37.203125-37.203124 37.203125h-2.203126zm0 0" fill="#fed2a4"/><path d="m367.085938 134.789062c-3.203126-33.027343-16.257813-62.476562-40.371094-86.585937-28.890625-28.886719-74.417969-40.988281-115.710938-40.703125-41.289062-.285156-86.820312 11.816406-115.710937 40.703125-24.117188 24.109375-37.167969 53.558594-40.371094 86.585937-.632813 6.542969-.15625 77.058594.027344 77.042969 128.273437-12.871093 152.558593-52.445312 156.054687-106.523437 3.496094 54.078125 27.78125 93.652344 156.054688 106.523437.183594.019531.660156-70.5.027344-77.042969zm0 0" fill="#a87a52"/><path d="m367.058594 211.828125c-9.433594-.949219-18.308594-2.035156-26.644532-3.265625.210938-13.941406.5-68.074219-.058593-73.773438-3.199219-33.015624-16.25-62.46875-40.363281-86.582031-25.804688-25.792969-64.878907-38.195312-102.351563-40.363281 4.484375-.261719 8.941406-.371094 13.359375-.339844 41.292969-.28125 86.824219 11.820313 115.714844 40.703125 24.113281 24.113281 37.164062 53.566407 40.375 86.582031.628906 6.546876.148437 77.058594-.03125 77.039063zm0 0" fill="#906846"/><path d="m361.710938 299.347656c-15.320313 43.914063-57.472657 75.457032-107.046876 75.457032h-87.265624c-49.578126 0-91.730469-31.542969-107.046876-75.457032l.078126.03125s83.261718 37.359375 150.523437-9.996094v-.101562c.019531.011719.054687.03125.078125.042969.023438-.011719.054688-.03125.078125-.042969v.101562c67.261719 47.355469 150.523437 9.996094 150.523437 9.996094zm0 0" fill="#a87a52"/><path d="m361.707031 299.347656c-14.800781 42.433594-54.65625 73.3125-102.066406 75.34375-.355469.027344-.714844.039063-1.070313.039063-.355468.019531-.714843.027343-1.070312.027343-.738281.03125-1.484375.042969-2.230469.03125-.132812.011719-.253906.011719-.386719.011719h-27.542968c46.015625 0 85.648437-27.023437 103.582031-65.917969 18.648437-4.097656 30.707031-9.503906 30.707031-9.503906zm0 0" fill="#906846"/><path d="m312.664062 429.375v.007812c-31.269531 48.808594-81.648437 75.121094-81.648437 75.121094h-111.105469c67.777344-18.988281 156.039063-115.105468 156.039063-115.105468 10.941406 8.976562 24.292969 22.058593 36.714843 39.976562zm0 0" fill="#ff4343"/><path d="m312.664062 429.382812c-3.757812 5.878907-7.804687 11.421876-12.003906 16.640626-10.929687-19.546876-23.554687-34.628907-35.054687-45.839844 6.574219-6.675782 10.34375-10.785156 10.34375-10.78125 3.371093 2.675781 6.597656 5.597656 9.734375 8.5625 4.773437 4.511718 9.375 9.210937 13.707031 14.152344 4.328125 4.941406 8.621094 10.46875 12.292969 15.867187.320312.46875.652344.917969.980468 1.398437zm0 0" fill="#f72c2c"/><path d="m165.765625 260.539062c4.140625 0 7.496094-3.355468 7.496094-7.492187v-28.367187c0-4.140626-3.355469-7.496094-7.496094-7.496094s-7.496094 3.355468-7.496094 7.496094v28.367187c0 4.136719 3.355469 7.492187 7.496094 7.492187zm0 0"/><path d="m255.796875 260.539062c4.136719 0 7.492187-3.355468 7.492187-7.492187v-28.367187c0-4.140626-3.355468-7.496094-7.492187-7.496094-4.140625 0-7.496094 3.355468-7.496094 7.496094v28.367187c0 4.136719 3.355469 7.492187 7.496094 7.492187zm0 0"/><path d="m422.058594 347.976562c0-17.632812-9.65625-33.605468-24.707032-41.945312 1.816407-4.902344 2.757813-10.113281 2.757813-15.398438 0-8.921874-2.726563-17.492187-7.5625-24.683593 12.886719-7.851563 21.519531-22.027344 21.519531-38.195313 0-22.789062-17.152344-41.640625-39.226562-44.347656.011718-2.566406.078125-45.46875-.296875-49.339844-3.464844-35.742187-17.773438-66.414062-42.53125-91.164062-14.523438-14.523438-33.421875-25.664063-56.171875-33.113282-20-6.550781-42.449219-9.941406-64.835938-9.7812495-33.722656-.2539065-66.476562 7.4218755-92.207031 21.5429685-3.628906 1.992188-4.953125 6.550781-2.964844 10.179688 1.992188 3.628906 6.550781 4.953125 10.179688 2.964843 23.539062-12.917968 53.652343-19.929687 84.9375-19.699218h.105469c.472656 0 .9375-.003906 1.40625-.003906 44.132812 0 84.785156 14.351562 108.953124 38.511718 22.230469 22.226563 35.085938 49.820313 38.207032 82.007813.394531 4.035156-1.429688 67.824219-.054688 67.980469-54.007812-6.132813-90.898437-17.703126-112.609375-35.292969-18.03125-14.609375-26.546875-33.5625-28.476562-63.375-.253907-3.945313-3.527344-7.011719-7.476563-7.011719-3.953125 0-7.226562 3.066406-7.480468 7.011719-1.929688 29.8125-10.445313 48.765625-28.472657 63.375-21.707031 17.582031-58.578125 29.152343-112.558593 35.285156v-12.929687c0-18.613282-1.902344-36.601563-.109376-55.046876 2.726563-28.121093 12.917969-52.8125 30.289063-73.394531 2.671875-3.164062 2.269531-7.894531-.894531-10.5625-3.164063-2.671875-7.890625-2.269531-10.558594.890625-19.375 22.953125-30.730469 50.414063-33.757812 81.625-.375 3.871094-.386719 24.785156-.328126 41.648438.007813 2.550781.019532 5.136718.03125 7.710937-21.996093 2.777344-39.070312 21.589844-39.070312 44.332031 0 16.132813 8.601562 30.289063 21.449219 38.144532-4.855469 7.207031-7.59375 15.789062-7.59375 24.734375 0 5.285156.941406 10.496093 2.753906 15.394531-15.050781 8.339844-24.703125 24.3125-24.703125 41.949219 0 24.386719 18.296875 44.582031 41.882812 47.578125-.933593 3.785156-1.414062 7.683594-1.414062 11.597656 0 24.285156 20.609375 46.976562 44.972656 48.234375-6.554687 13.816406-12.273437 29.597656-16.300781 47.464844-.503906 2.222656.035156 4.550781 1.457031 6.332031 1.421875 1.777344 3.574219 2.8125 5.851563 2.8125h268.785156c2.277344 0 4.433594-1.035156 5.855469-2.8125 1.421875-1.78125 1.957031-4.109375 1.457031-6.332031-4.070313-18.039063-9.863281-33.953125-16.496094-47.871094 9.605469-.832031 18.613281-3.195313 27.121094-9.933594 11.492187-9.097656 18.414063-23.226562 18.414063-37.894531 0-3.910156-.480469-7.8125-1.417969-11.597656 23.59375-2.996094 41.890625-23.191406 41.890625-47.582032zm-47.398438-141.085937c.019532-1.71875.042969-3.808594.0625-6.191406.007813-.699219.011719-1.429688.019532-2.164063 13.824218 2.539063 24.335937 14.671875 24.335937 29.21875 0 14.574219-10.554687 26.734375-24.417969 29.238282zm-63.226562 111.691406c13.921875-1.644531 25.953125-4.59375 34.902344-7.304687-13.453126 25.027344-36.527344 43.386718-63.582032 51.0625-18.03125 4.761718-36.15625 3.726562-55.023437 3.726562-14.164063 0-28.328125 0-42.496094 0-12.609375 0-25.585937.425782-38.058594-1.828125-30.417969-6.128906-56.710937-25.539062-71.453125-52.960937 8.949219 2.710937 20.984375 5.660156 34.902344 7.304687 37.785156 4.46875 72.371094-2.851562 100.40625-21.179687 28.035156 18.328125 62.625 25.648437 100.402344 21.179687zm-248.941406-100.011719c58.5625-6.476562 97.441406-18.832031 121.992187-38.722656 13.503906-10.941406 21.601563-23.570312 26.519531-36.3125 4.917969 12.738282 13.015625 25.371094 26.515625 36.3125 24.5625 19.894532 63.457031 32.253906 122.050781 38.726563v42.59375c0 10.65625-1.65625 21.226562-4.816406 31.316406-5.957031 2.378906-23.296875 8.695313-45.535156 11.265625-31.191406 3.609375-58.878906-1.226562-82.503906-14.371094 2.496094-2.132812 4.574218-4.78125 6.035156-7.832031 1.78125-3.734375.203125-8.210937-3.53125-9.996094-3.734375-1.785156-8.210938-.203125-9.996094 3.53125-1.472656 3.082031-4.628906 5.074219-8.039062 5.074219-3.589844 0-6.808594-2.136719-8.207032-5.441406-1.613281-3.8125-6.015624-5.59375-9.824218-3.984375-3.8125 1.613281-5.597656 6.011719-3.984375 9.824219 1.453125 3.433593 3.648437 6.390624 6.339843 8.734374-23.664062 13.207032-51.40625 18.074219-82.667968 14.460938-22.152344-2.558594-39.441406-8.835938-45.457032-11.234375-3.1875-10.046875-4.890624-20.609375-4.890624-31.347656 0-.007813 0-42.597657 0-42.597657zm-39.410157 9.183594c0-14.488281 10.433594-26.585937 24.183594-29.183594.003906.71875.234375 58.421876.234375 58.421876-13.863281-2.503907-24.417969-14.660157-24.417969-29.238282zm40.296875 200.917969c-5.066406-5.980469-7.921875-13.671875-7.921875-21.515625 0-5.464844 1.289063-10.679688 3.828125-15.492188 1.296875-2.460937 1.121094-5.4375-.449218-7.730468-1.570313-2.292969-4.273438-3.535156-7.042969-3.210938-1.316407.152344-2.605469.230469-3.828125.230469-18.183594 0-32.972656-14.792969-32.972656-32.972656 0-14.066407 8.929687-26.59375 22.226562-31.175781 2.144531-.738282 3.839844-2.40625 4.609375-4.539063s.53125-4.5-.644531-6.4375c-2.777344-4.566406-4.242188-9.816406-4.242188-15.191406 0-7.078125 2.601563-13.8125 7.097656-19.050781 1.304688.261718 2.628907.464843 3.972657.609374 4.9375 53.980469 45.730469 97.742188 98.292969 107.203126-6.148438 4.679687-13.316407 10.757812-20.839844 18.40625-10.007813 10.167968-21.664063 24.253906-32.179688 42.589843-11.117187-.304687-21.679687-2.023437-29.90625-11.722656zm165.714844 68.339844h-72.40625c14.335938-7.816407 29.816406-18.125 46.332031-30.855469 3.277344-2.527344 3.886719-7.230469 1.359375-10.511719-2.527344-3.277343-7.230468-3.886719-10.511718-1.359375-28.945313 22.3125-54.183594 36.667969-75.058594 42.726563h-32.777344c11.503906-42.484375 33.054688-71.238281 49.660156-88.230469 15.613282-15.976562 29.738282-24.679688 34.6875-27.484375h80.933594c2.496094 1.414063 7.316406 4.332031 13.507812 8.945313-6.859374 7.109374-19.539062 19.890624-35.414062 34.230468-3.074219 2.773438-3.3125 7.511719-.539062 10.585938 2.773437 3.070312 7.511718 3.3125 10.585937.539062 17.015625-15.371094 30.238281-28.769531 37.019531-35.835937 8.4375 7.503906 17.925782 17.347656 27.070313 29.824219-26.796875 39.226562-66.199219 62.769531-74.449219 67.425781zm27.792969 0c15.996093-11.386719 37.726562-29.53125 55.601562-54.101563 9.164063 14.929688 17.429688 32.847656 23.171875 54.101563zm117.207031-116.058594c-1.226562 0-2.511719-.078125-3.828125-.230469-2.769531-.324218-5.472656.917969-7.042969 3.210938-1.574218 2.292968-1.746094 5.265625-.449218 7.726562 2.539062 4.816406 3.824218 10.03125 3.824218 15.496094 0 8.65625-3.484375 17.101562-9.53125 23.285156-3.183594 3.25-7.019531 5.839844-11.234375 7.5625-5.070312 2.066406-11.140625 2.640625-17.238281 2.71875-9.78125-17.125-22.484375-33.589844-36.761719-47.242187-3.101562-2.960938-6.300781-5.835938-9.589843-8.597657-.976563-.820312-5.613282-5.640624-6.789063-5.433593 52.703125-9.34375 93.640625-53.164063 98.59375-107.242188 1.347656-.140625 2.679687-.34375 3.992187-.601562 4.484376 5.234375 7.078126 11.960937 7.078126 19.03125 0 5.375-1.46875 10.625-4.242188 15.1875-1.175781 1.9375-1.414062 4.304687-.644531 6.4375.769531 2.136719 2.464843 3.804687 4.609375 4.542969 13.292968 4.582031 22.226562 17.109374 22.226562 31.171874 0 18.183594-14.792968 32.976563-32.972656 32.976563zm0 0"/></svg>